<?xml version="1.0" standalone="no"?>
<!DOCTYPE svg PUBLIC "-//W3C//DTD SVG 20010904//EN"
 "http://www.w3.org/TR/2001/REC-SVG-20010904/DTD/svg10.dtd">
<svg version="1.0" xmlns="http://www.w3.org/2000/svg"
 width="894.000000pt" height="894.000000pt" viewBox="0 0 894.000000 894.000000"
 preserveAspectRatio="xMidYMid meet">

<g transform="translate(0.000000,894.000000) scale(0.100000,-0.100000)"
fill="#000000" stroke="none">
<path d="M4140 8929 c-1303 -104 -2481 -750 -3250 -1784 -486 -652 -766 -1368
-867 -2210 -25 -212 -25 -718 0 -930 101 -842 381 -1558 867 -2210 495 -666
1171 -1181 1950 -1487 1644 -647 3528 -255 4781 992 734 731 1169 1639 1296
2705 25 212 25 718 0 930 -101 842 -381 1558 -867 2210 -136 183 -260 327
-429 495 -843 839 -1986 1307 -3175 1299 -111 -1 -248 -6 -306 -10z m800 -324
c1144 -140 2161 -720 2842 -1621 966 -1279 1115 -2987 385 -4408 -210 -408
-432 -712 -761 -1042 -333 -332 -646 -560 -1056 -768 -823 -418 -1749 -551
-2650 -380 -1288 244 -2379 1070 -2956 2238 -218 440 -349 883 -411 1386 -22
180 -25 704 -5 875 77 660 269 1229 596 1762 675 1103 1852 1841 3126 1962 63
6 133 13 155 15 100 10 608 -3 735 -19z"/>
<path d="M4594 7840 c-196 -42 -390 -153 -533 -306 -180 -192 -273 -425 -293
-738 l-3 -40 -145 -56 c-224 -87 -381 -173 -567 -311 -117 -87 -330 -293 -428
-414 -274 -339 -443 -733 -500 -1168 -30 -231 -17 -603 29 -822 l14 -65 -85
-66 c-151 -118 -250 -288 -277 -476 -4 -27 -13 -48 -19 -48 -33 0 -120 54
-168 103 -132 136 -253 420 -266 625 -3 51 -9 89 -13 85 -9 -10 -44 -152 -62
-253 -17 -100 -18 -463 0 -545 48 -221 124 -366 259 -499 191 -189 457 -296
738 -296 187 0 328 33 509 119 48 23 92 41 100 41 7 0 21 -9 31 -20 37 -41
217 -173 332 -242 358 -218 762 -328 1203 -328 589 0 1089 187 1539 574 52 45
99 80 104 78 6 -2 36 -18 67 -36 160 -94 359 -114 554 -55 46 13 72 17 79 10
19 -19 2 -171 -26 -239 -37 -90 -144 -245 -231 -334 -74 -77 -180 -162 -226
-181 -17 -7 -20 -11 -10 -14 18 -4 219 54 315 92 301 118 546 318 652 530 181
361 116 836 -157 1150 -97 112 -180 180 -324 265 -37 22 -38 24 -31 64 36 222
47 540 24 744 -43 403 -205 811 -450 1138 -91 122 -294 332 -414 429 -197 159
-427 290 -657 374 l-117 43 -6 36 c-34 245 -106 382 -270 520 -30 26 -55 52
-55 58 0 7 19 26 42 43 153 113 549 106 808 -14 l75 -35 -79 75 c-184 174
-446 326 -665 386 -85 23 -324 35 -397 19z m-815 -1187 c6 -21 11 -43 11 -49
0 -7 18 -47 39 -90 129 -256 447 -423 733 -384 163 22 295 86 399 192 68 69
116 161 150 283 11 44 22 81 24 83 1 1 41 -11 88 -28 328 -116 683 -351 906
-600 350 -390 559 -866 611 -1389 18 -184 8 -380 -28 -576 l-17 -90 -130 -1
c-104 0 -142 -5 -190 -21 -110 -39 -179 -74 -252 -129 -199 -152 -305 -387
-283 -628 13 -134 43 -205 139 -330 33 -43 58 -82 55 -87 -3 -5 -47 -45 -99
-88 -390 -328 -839 -510 -1356 -551 -398 -32 -878 84 -1259 302 -159 92 -380
253 -380 278 0 4 23 35 50 67 153 176 198 458 115 703 -67 196 -241 373 -435
441 -90 31 -241 32 -357 1 -45 -12 -84 -22 -87 -22 -19 0 -65 292 -73 465 -15
343 68 732 229 1075 95 203 255 439 411 606 160 171 413 356 643 470 109 54
299 132 326 134 4 0 12 -17 17 -37z"/>
<path d="M4295 5353 c-345 -74 -617 -347 -690 -693 -19 -91 -19 -279 0 -369
88 -419 446 -711 871 -711 235 0 434 79 606 239 129 121 220 278 265 457 25
102 22 313 -6 419 -79 295 -293 530 -571 627 -142 49 -333 62 -475 31z"/>
</g>
</svg>
